<svg width="28" height="28" viewBox="0 0 28 28" fill="none" xmlns="http://www.w3.org/2000/svg">
<path d="M12.2501 23.3333C12.2501 23.7974 12.4345 24.2425 12.7626 24.5707C13.0908 24.8989 13.536 25.0833 14.0001 25.0833C14.4642 25.0833 14.9093 24.8989 15.2375 24.5707C15.5657 24.2425 15.7501 23.7974 15.7501 23.3333V15.75H23.3334C23.7975 15.75 24.2427 15.5656 24.5709 15.2374C24.899 14.9092 25.0834 14.4641 25.0834 14C25.0834 13.5358 24.899 13.0907 24.5709 12.7625C24.2427 12.4343 23.7975 12.25 23.3334 12.25H15.7501V4.66663C15.7501 4.2025 15.5657 3.75738 15.2375 3.42919C14.9093 3.101 14.4642 2.91663 14.0001 2.91663C13.536 2.91663 13.0908 3.101 12.7626 3.42919C12.4345 3.75738 12.2501 4.2025 12.2501 4.66663V12.25H4.66675C4.20262 12.25 3.7575 12.4343 3.42931 12.7625C3.10112 13.0907 2.91675 13.5358 2.91675 14C2.91675 14.4641 3.10112 14.9092 3.42931 15.2374C3.7575 15.5656 4.20262 15.75 4.66675 15.75H12.2501V23.3333Z" fill="black"/>
</svg>
