<svg width="25" height="25" viewBox="0 0 25 25" fill="none" xmlns="http://www.w3.org/2000/svg">
<path d="M12.5 16.2364L4.57337 24.1848C4.07156 24.683 3.43388 24.9321 2.66032 24.9321C1.88677 24.9321 1.24909 24.683 0.747283 24.1848C0.249094 23.6866 0 23.0525 0 22.2826C0 21.5127 0.249094 20.8786 0.747283 20.3804L8.69565 12.4321L0.747283 4.57337C0.249094 4.07156 0 3.43388 0 2.66033C0 1.88678 0.249094 1.24909 0.747283 0.747282C1.24547 0.249093 1.87953 0 2.64946 0C3.41938 0 4.05344 0.249093 4.55163 0.747282L12.5 8.69565L20.3587 0.747282C20.8605 0.249093 21.4982 0 22.2717 0C23.0453 0 23.683 0.249093 24.1848 0.747282C24.7283 1.29076 25 1.93659 25 2.68478C25 3.43297 24.7283 4.05525 24.1848 4.55163L16.2364 12.4321L24.1848 20.3587C24.683 20.8605 24.9321 21.4982 24.9321 22.2717C24.9321 23.0453 24.683 23.683 24.1848 24.1848C23.6413 24.7283 22.9964 25 22.25 25C21.5036 25 20.8804 24.7283 20.3804 24.1848L12.5 16.2364Z" fill="black"/>
</svg>
