<svg width="10" height="10" viewBox="0 0 10 10" fill="none" xmlns="http://www.w3.org/2000/svg">
<g clip-path="url(#clip0_662_71)">
<path d="M5 6.49456L1.82935 9.67392C1.62862 9.8732 1.37355 9.97284 1.06413 9.97284C0.754708 9.97284 0.499636 9.8732 0.298913 9.67392C0.0996376 9.47464 0 9.221 0 8.91304C0 8.60508 0.0996376 8.35144 0.298913 8.15216L3.47826 4.97284L0.298913 1.82935C0.0996376 1.62862 0 1.37355 0 1.06413C0 0.754712 0.0996376 0.499636 0.298913 0.298913C0.498188 0.0996372 0.751812 0 1.05978 0C1.36775 0 1.62138 0.0996372 1.82065 0.298913L5 3.47826L8.14348 0.298913C8.3442 0.0996372 8.59928 0 8.90868 0C9.21812 0 9.4732 0.0996372 9.67392 0.298913C9.89132 0.516304 10 0.774636 10 1.07391C10 1.37319 9.89132 1.6221 9.67392 1.82065L6.49456 4.97284L9.67392 8.14348C9.8732 8.3442 9.97284 8.59928 9.97284 8.90868C9.97284 9.21812 9.8732 9.4732 9.67392 9.67392C9.45652 9.89132 9.19856 10 8.9 10C8.60144 10 8.35216 9.89132 8.15216 9.67392L5 6.49456Z" fill="#5A5B5A"/>
</g>
<defs>
<clipPath id="clip0_662_71">
<rect width="10" height="10" fill="white"/>
</clipPath>
</defs>
</svg>
