<svg width="19" height="17" viewBox="0 0 19 17" fill="none" xmlns="http://www.w3.org/2000/svg">
<path d="M2.24481 2.65034C1.85016 3.03642 1.5371 3.49476 1.32352 3.9992C1.10993 4.50364 1 5.04429 1 5.59029C1 6.13629 1.10993 6.67695 1.32352 7.18139C1.5371 7.68583 1.85016 8.14417 2.24481 8.53025L9.50001 15.6279L16.7552 8.53025C17.5522 7.75052 18 6.69299 18 5.59029C18 4.4876 17.5522 3.43006 16.7552 2.65034C15.9582 1.87061 14.8772 1.43257 13.75 1.43257C12.6228 1.43257 11.5418 1.87061 10.7448 2.65034L9.50001 3.86808L8.25523 2.65034C7.86058 2.26425 7.39207 1.95799 6.87643 1.74905C6.3608 1.5401 5.80814 1.43256 5.25002 1.43256C4.6919 1.43256 4.13925 1.5401 3.62361 1.74905C3.10798 1.95799 2.63946 2.26425 2.24481 2.65034Z" stroke="#929292" stroke-width="2" stroke-linecap="round" stroke-linejoin="round"/>
</svg>
