<svg width="24" height="20" viewBox="0 0 24 20" fill="none" xmlns="http://www.w3.org/2000/svg">
<path d="M18.4478 14.3377L15.5069 11.4226L16.9774 9.97796L18.4478 11.4226L22.0852 7.78519L23.5557 9.22984L18.4478 14.3377ZM11.2762 19.3166L7.99989 16.3757C6.76162 15.2578 5.69963 14.2603 4.81393 13.3832C3.92822 12.5061 3.1973 11.6806 2.62116 10.9067C2.04502 10.1327 1.62366 9.38462 1.35709 8.6623C1.09052 7.93997 0.95723 7.18325 0.95723 6.39213C0.95723 4.7755 1.49897 3.42974 2.58246 2.35485C3.66595 1.27997 5.01601 0.742523 6.63264 0.742523C7.52694 0.742523 8.37825 0.931703 9.18657 1.31006C9.99488 1.68842 10.6914 2.22157 11.2762 2.9095C11.8609 2.22157 12.5574 1.68842 13.3657 1.31006C14.174 0.931703 15.0254 0.742523 15.9197 0.742523C17.3127 0.742523 18.4822 1.13378 19.4281 1.9163C20.374 2.69882 21.0189 3.68342 21.3629 4.87009H19.1701C18.8606 4.18216 18.4048 3.66622 17.8029 3.32225C17.2009 2.97829 16.5732 2.80631 15.9197 2.80631C15.0426 2.80631 14.2858 3.04278 13.6495 3.51573C13.0132 3.98868 12.4198 4.61212 11.8695 5.38604H10.6828C10.1497 4.61212 9.54343 3.98868 8.8641 3.51573C8.18477 3.04278 7.44095 2.80631 6.63264 2.80631C5.65234 2.80631 4.80533 3.14597 4.0916 3.8253C3.37788 4.50463 3.02101 5.36024 3.02101 6.39213C3.02101 6.95967 3.1414 7.53581 3.38218 8.12055C3.62295 8.70529 4.05291 9.38032 4.67204 10.1456C5.29118 10.911 6.13389 11.8053 7.20018 12.8286C8.26647 13.8519 9.62512 15.0858 11.2762 16.5305C11.7233 16.1349 12.2478 15.6792 12.8498 15.1632C13.4517 14.6473 13.9333 14.2173 14.2944 13.8734L14.5266 14.1055L15.0297 14.6086L15.5327 15.1116L15.7649 15.3438C15.3865 15.6878 14.905 16.1134 14.3202 16.6208C13.7355 17.1281 13.2195 17.5796 12.7724 17.9751L11.2762 19.3166Z" fill="black"/>
</svg>
