<svg width="25" height="22" viewBox="0 0 25 22" fill="none" xmlns="http://www.w3.org/2000/svg">
<path d="M24.2909 1.70035L16.7909 21.0754C16.7167 21.2672 16.5963 21.4379 16.4403 21.5721C16.2844 21.7063 16.0977 21.7999 15.8969 21.8447C15.6961 21.8894 15.4874 21.8839 15.2892 21.8287C15.091 21.7734 14.9095 21.6701 14.7609 21.5279L10.5334 17.4841L7.94088 20.0754C7.8534 20.1626 7.74205 20.2219 7.62088 20.2458C7.4997 20.2698 7.37415 20.2573 7.26006 20.21C7.14598 20.1626 7.04848 20.0825 6.97988 19.9798C6.91128 19.8771 6.87466 19.7564 6.87463 19.6329V13.9841L0.385881 7.77785C0.224885 7.62382 0.107985 7.42956 0.0472835 7.21518C-0.0134183 7.0008 -0.0157153 6.77409 0.0406304 6.55852C0.0969761 6.34296 0.209916 6.14637 0.367758 5.98911C0.5256 5.83185 0.722606 5.71965 0.938381 5.6641L22.8134 0.0390998C23.0358 -0.0178706 23.2696 -0.0124945 23.4891 0.0546385C23.7086 0.121771 23.9055 0.248068 24.058 0.419676C24.2104 0.591284 24.3127 0.801575 24.3536 1.02748C24.3945 1.25339 24.3723 1.48619 24.2896 1.70035H24.2909ZM21.2496 3.12535L7.53963 12.0641L9.70838 14.1391L21.2496 3.12535Z" fill="white"/>
</svg>
