<?xml version="1.0"?>
<svg width="640" height="480" xmlns="http://www.w3.org/2000/svg" xmlns:svg="http://www.w3.org/2000/svg">
 <g class="layer">
  <title>Layer 1</title>
  <path d="m358.85,10.57l24.08,163.72l129.75,102.71l-163.72,24.08l-102.71,129.75l-24.08,-163.72l-129.75,-102.71l163.72,-24.08l102.71,-129.75" fill="url(#svg_99)" id="svg_2" transform="matrix(1 0 0 1 0 0)"/>
  <path d="m542.88,100.59l22.16,41.04l44.28,14.71l-41.05,22.16l-14.7,44.28l-22.16,-41.05l-44.28,-14.7l41.05,-22.17l14.7,-44.27" fill="url(#svg_99)" fill-rule="evenodd" id="svg_3" transform="matrix(1 0 0 1 0 0)"/>
  <path d="m3422.98,2960.4c0,0 16.12,171.56 16.12,171.61c0.98,10.35 4.21,19.94 9.22,27.33c5.01,7.39 11.51,12.16 18.53,13.59c0.04,0.02 116.34,23.78 116.34,23.78c0,0 -116.3,23.78 -116.34,23.79c-7.02,1.43 -13.52,6.2 -18.53,13.59c-5.01,7.39 -8.24,16.98 -9.22,27.33c0,0.05 -16.12,171.61 -16.12,171.61l-16.12,-171.61c-0.97,-10.35 -4.21,-19.94 -9.22,-27.33c-5.01,-7.39 -11.51,-12.16 -18.53,-13.59c-0.04,-0.01 -116.34,-23.79 -116.34,-23.79c0,0 116.3,-23.76 116.34,-23.78c7.02,-1.43 13.52,-6.2 18.53,-13.59c5.01,-7.39 8.25,-16.98 9.22,-27.33l16.12,-171.61" fill="rgb(97.906494%, 88.180542%, 1.530457%)" fill-rule="evenodd" id="svg_29"/>
  <path d="m3473.04,3510.4c0,0 6.47,68.82 6.47,68.84c0.39,4.15 1.69,8 3.7,10.96c2.01,2.97 4.62,4.88 7.43,5.46c0.02,0 46.67,9.54 46.67,9.54c0,0 -46.65,9.53 -46.67,9.54c-2.81,0.57 -5.42,2.49 -7.43,5.45c-2.01,2.97 -3.31,6.81 -3.7,10.97c0,0.02 -6.47,68.84 -6.47,68.84l-6.47,-68.84c-0.39,-4.16 -1.68,-8 -3.69,-10.97c-2.01,-2.96 -4.62,-4.88 -7.44,-5.45c-0.01,-0.01 -46.67,-9.54 -46.67,-9.54c0,0 46.66,-9.54 46.67,-9.54c2.82,-0.58 5.43,-2.49 7.44,-5.46c2.01,-2.96 3.3,-6.81 3.69,-10.96l6.47,-68.84" fill="rgb(97.906494%, 88.180542%, 1.530457%)" fill-rule="evenodd" id="svg_30"/>
  <path d="m3614.87,3320.79c0,0 6.47,68.83 6.47,68.85c0.39,4.15 1.69,8 3.69,10.96c2.01,2.97 4.63,4.88 7.44,5.45c0.02,0.01 46.67,9.54 46.67,9.54c0,0 -46.65,9.54 -46.67,9.55c-2.81,0.57 -5.43,2.49 -7.44,5.45c-2,2.96 -3.3,6.81 -3.69,10.96c0,0.02 -6.47,68.85 -6.47,68.85l-6.47,-68.85c-0.39,-4.15 -1.69,-8 -3.69,-10.96c-2.01,-2.96 -4.62,-4.88 -7.44,-5.45c-0.02,-0.01 -46.67,-9.55 -46.67,-9.55c0,0 46.65,-9.53 46.67,-9.54c2.82,-0.57 5.43,-2.48 7.44,-5.45c2,-2.96 3.3,-6.81 3.69,-10.96l6.47,-68.85" fill="rgb(97.906494%, 88.180542%, 1.530457%)" fill-rule="evenodd" id="svg_31"/>
  <path d="m3635.73,2960.4c0,0 6.46,68.83 6.46,68.85c0.4,4.15 1.69,8 3.7,10.96c2.01,2.97 4.62,4.88 7.44,5.45c0.01,0.01 46.67,9.54 46.67,9.54c0,0 -46.66,9.54 -46.67,9.55c-2.82,0.57 -5.43,2.48 -7.44,5.45c-2.01,2.96 -3.3,6.81 -3.7,10.96c0,0.02 -6.46,68.85 -6.46,68.85l-6.47,-68.85c-0.39,-4.15 -1.69,-8 -3.7,-10.96c-2.01,-2.97 -4.62,-4.88 -7.43,-5.45c-0.02,-0.01 -46.67,-9.55 -46.67,-9.55c0,0 46.65,-9.53 46.67,-9.54c2.81,-0.57 5.42,-2.48 7.43,-5.45c2.01,-2.96 3.31,-6.81 3.7,-10.96l6.47,-68.85" fill="rgb(97.906494%, 88.180542%, 1.530457%)" fill-rule="evenodd" id="svg_32"/>
  <path d="m3408.77,2756c0,0 6.47,68.83 6.47,68.85c0.39,4.15 1.69,8 3.69,10.96c2.01,2.96 4.62,4.88 7.44,5.45c0.02,0.01 46.67,9.55 46.67,9.55c0,0 -46.65,9.53 -46.67,9.53c-2.82,0.58 -5.43,2.49 -7.44,5.46c-2,2.96 -3.3,6.81 -3.69,10.96c0,0.02 -6.47,68.85 -6.47,68.85l-6.47,-68.85c-0.39,-4.15 -1.69,-8 -3.7,-10.96c-2.01,-2.97 -4.62,-4.88 -7.43,-5.46c-0.02,0 -46.67,-9.53 -46.67,-9.53c0,0 46.65,-9.54 46.67,-9.55c2.81,-0.57 5.42,-2.49 7.43,-5.45c2.01,-2.96 3.31,-6.81 3.7,-10.96l6.47,-68.85" fill="rgb(97.906494%, 88.180542%, 1.530457%)" fill-rule="evenodd" id="svg_33"/>
  <path d="m3179.34,2850.81c0,0 6.47,68.82 6.47,68.84c0.39,4.15 1.69,8 3.7,10.96c2,2.97 4.61,4.88 7.43,5.46c0.02,0 46.67,9.54 46.67,9.54c0,0 -46.65,9.53 -46.67,9.54c-2.82,0.57 -5.43,2.49 -7.43,5.45c-2.01,2.96 -3.31,6.81 -3.7,10.96c0,0.02 -6.47,68.85 -6.47,68.85l-6.47,-68.85c-0.39,-4.15 -1.69,-8 -3.69,-10.96c-2.01,-2.96 -4.62,-4.88 -7.44,-5.45c-0.02,-0.01 -46.67,-9.54 -46.67,-9.54c0,0 46.65,-9.54 46.67,-9.54c2.82,-0.58 5.43,-2.49 7.44,-5.46c2,-2.96 3.3,-6.81 3.69,-10.96l6.47,-68.84" fill="rgb(97.906494%, 88.180542%, 1.530457%)" fill-rule="evenodd" id="svg_34"/>
  <path d="m3179.34,3225.99c0,0 6.47,68.83 6.47,68.85c0.39,4.14 1.69,8 3.7,10.96c2,2.96 4.61,4.88 7.43,5.45c0.02,0.01 46.67,9.54 46.67,9.54c0,0 -46.65,9.54 -46.67,9.54c-2.82,0.58 -5.43,2.49 -7.43,5.46c-2.01,2.96 -3.31,6.81 -3.7,10.96c0,0.02 -6.47,68.84 -6.47,68.84l-6.47,-68.84c-0.39,-4.15 -1.69,-8 -3.69,-10.96c-2.01,-2.97 -4.62,-4.88 -7.44,-5.46c-0.02,0 -46.67,-9.54 -46.67,-9.54c0,0 46.65,-9.53 46.67,-9.54c2.82,-0.57 5.43,-2.49 7.44,-5.45c2,-2.96 3.3,-6.82 3.69,-10.96l6.47,-68.85" fill="rgb(97.906494%, 88.180542%, 1.530457%)" fill-rule="evenodd" id="svg_35"/>
  <path d="m3262.77,3476.28c0,0 6.47,68.82 6.47,68.84c0.39,4.15 1.69,8 3.69,10.97c2.01,2.96 4.62,4.87 7.44,5.45c0.02,0 46.67,9.54 46.67,9.54c0,0 -46.65,9.54 -46.67,9.54c-2.82,0.58 -5.43,2.49 -7.44,5.45c-2,2.97 -3.3,6.82 -3.69,10.97c0,0.02 -6.47,68.84 -6.47,68.84l-6.47,-68.84c-0.39,-4.15 -1.69,-8 -3.7,-10.97c-2.01,-2.96 -4.62,-4.87 -7.43,-5.45c-0.02,0 -46.67,-9.54 -46.67,-9.54c0,0 46.65,-9.54 46.67,-9.54c2.81,-0.58 5.42,-2.49 7.43,-5.45c2.01,-2.97 3.31,-6.82 3.7,-10.97l6.47,-68.84" fill="rgb(97.906494%, 88.180542%, 1.530457%)" fill-rule="evenodd" id="svg_36"/>
  <path d="m3334.27,3368.2c0,0 3.23,34.41 3.23,34.42c0.2,2.07 0.85,4 1.85,5.48c1.01,1.48 2.31,2.44 3.72,2.72c0.01,0.01 23.34,4.77 23.34,4.77c0,0 -23.33,4.77 -23.34,4.77c-1.41,0.29 -2.71,1.25 -3.72,2.73c-1,1.48 -1.65,3.41 -1.85,5.48c0,0.02 -3.23,34.43 -3.23,34.43l-3.24,-34.43c-0.19,-2.07 -0.84,-4 -1.84,-5.48c-1.01,-1.48 -2.31,-2.44 -3.72,-2.73c-0.01,0 -23.34,-4.77 -23.34,-4.77c0,0 23.33,-4.76 23.34,-4.77c1.41,-0.28 2.71,-1.24 3.72,-2.72c1,-1.48 1.65,-3.41 1.84,-5.48l3.24,-34.42" fill="rgb(97.906494%, 88.180542%, 1.530457%)" fill-rule="evenodd" id="svg_37"/>
  <path d="m3275.75,3059.03c0,0 3.23,34.41 3.23,34.42c0.2,2.08 0.85,4 1.85,5.48c1.01,1.48 2.31,2.44 3.72,2.73c0.01,0 23.34,4.77 23.34,4.77c0,0 -23.33,4.77 -23.34,4.77c-1.41,0.29 -2.71,1.25 -3.72,2.73c-1,1.48 -1.65,3.4 -1.85,5.48c0,0.01 -3.23,34.42 -3.23,34.42l-3.24,-34.42c-0.19,-2.08 -0.84,-4 -1.84,-5.48c-1.01,-1.48 -2.31,-2.44 -3.72,-2.73c-0.01,0 -23.34,-4.77 -23.34,-4.77c0,0 23.33,-4.77 23.34,-4.77c1.41,-0.29 2.71,-1.25 3.72,-2.73c1,-1.48 1.65,-3.4 1.84,-5.48l3.24,-34.42" fill="rgb(97.906494%, 88.180542%, 1.530457%)" fill-rule="evenodd" id="svg_38"/>
  <path d="m3494.84,2964.23c0,0 3.24,34.41 3.24,34.42c0.19,2.07 0.84,4 1.85,5.48c1,1.48 2.31,2.44 3.71,2.73c0.01,0 23.34,4.77 23.34,4.77c0,0 -23.33,4.76 -23.34,4.77c-1.4,0.28 -2.71,1.24 -3.71,2.73c-1.01,1.48 -1.66,3.4 -1.85,5.48c0,0.01 -3.24,34.42 -3.24,34.42l-3.23,-34.42c-0.2,-2.08 -0.85,-4 -1.85,-5.48c-1.01,-1.49 -2.31,-2.45 -3.72,-2.73c-0.01,-0.01 -23.33,-4.77 -23.33,-4.77c0,0 23.32,-4.77 23.33,-4.77c1.41,-0.29 2.71,-1.25 3.72,-2.73c1,-1.48 1.65,-3.41 1.85,-5.48l3.23,-34.42" fill="rgb(97.906494%, 88.180542%, 1.530457%)" fill-rule="evenodd" id="svg_39"/>
  <path d="m3541.1,3246.61c0,0 3.23,34.42 3.23,34.43c0.2,2.07 0.84,4 1.85,5.48c1,1.48 2.31,2.44 3.71,2.73c0.01,0 23.34,4.77 23.34,4.77c0,0 -23.33,4.76 -23.34,4.77c-1.4,0.28 -2.71,1.24 -3.71,2.72c-1.01,1.48 -1.65,3.41 -1.85,5.48c0,0.01 -3.23,34.42 -3.23,34.42l-3.24,-34.42c-0.19,-2.07 -0.84,-4 -1.85,-5.48c-1,-1.48 -2.31,-2.44 -3.71,-2.72c-0.01,-0.01 -23.34,-4.77 -23.34,-4.77c0,0 23.33,-4.77 23.34,-4.77c1.4,-0.29 2.71,-1.25 3.71,-2.73c1.01,-1.48 1.66,-3.41 1.85,-5.48l3.24,-34.43" fill="rgb(97.906494%, 88.180542%, 1.530457%)" fill-rule="evenodd" id="svg_40"/>
  <path d="m2476.27,2873.91l10.2,115.14c0.71,8.06 3.62,15.58 8.25,21.31c4.62,5.73 10.69,9.34 17.19,10.23l92.91,12.63l-92.91,12.64c-6.5,0.89 -12.57,4.5 -17.19,10.23c-4.63,5.73 -7.54,13.25 -8.25,21.3l-10.2,115.15l-10.2,-115.15c-0.71,-8.05 -3.62,-15.57 -8.25,-21.3c-4.62,-5.73 -10.69,-9.34 -17.19,-10.23l-92.9,-12.64l92.9,-12.63c6.5,-0.89 12.57,-4.5 17.19,-10.23c4.63,-5.73 7.54,-13.25 8.25,-21.31l10.2,-115.14" fill="rgb(97.906494%, 88.180542%, 1.530457%)" fill-rule="evenodd" id="svg_41"/>
  <path d="m2502.42,3422.78l5.1,57.57c0.36,4.03 1.81,7.79 4.12,10.65c2.32,2.87 5.35,4.68 8.6,5.12l46.45,6.32l-46.45,6.32c-3.25,0.44 -6.28,2.24 -8.6,5.11c-2.31,2.86 -3.76,6.62 -4.12,10.65l-5.1,57.57l-5.1,-57.57c-0.36,-4.03 -1.81,-7.79 -4.12,-10.65c-2.32,-2.87 -5.35,-4.67 -8.6,-5.11l-46.45,-6.32l46.45,-6.32c3.25,-0.44 6.28,-2.25 8.6,-5.12c2.31,-2.86 3.76,-6.62 4.12,-10.65l5.1,-57.57" fill="rgb(97.906494%, 88.180542%, 1.530457%)" fill-rule="evenodd" id="svg_42"/>
  <path d="m2387.32,3033.22l14.23,160.67c0.99,11.25 5.06,21.74 11.51,29.74c6.45,8 14.92,13.03 23.99,14.27l129.64,17.64l-129.64,17.63c-9.07,1.24 -17.54,6.27 -23.99,14.27c-6.45,8 -10.52,18.49 -11.51,29.74l-14.23,160.67l-14.23,-160.67c-1,-11.25 -5.06,-21.74 -11.52,-29.74c-6.45,-8 -14.91,-13.03 -23.99,-14.27l-129.64,-17.63l129.64,-17.64c9.08,-1.24 17.54,-6.27 23.99,-14.27c6.46,-8 10.52,-18.49 11.52,-29.74l14.23,-160.67" fill="rgb(97.906494%, 88.180542%, 1.530457%)" fill-rule="evenodd" id="svg_43"/>
  <path d="m2668.35,3119.93l14.24,160.67c0.99,11.25 5.05,21.74 11.51,29.74c6.45,8 14.91,13.03 23.99,14.27l129.64,17.63l-129.64,17.64c-9.08,1.23 -17.54,6.27 -23.99,14.27c-6.46,8 -10.52,18.49 -11.51,29.73l-14.24,160.67l-14.23,-160.67c-0.99,-11.24 -5.05,-21.73 -11.51,-29.73c-6.45,-8 -14.92,-13.04 -23.99,-14.27l-129.64,-17.64l129.64,-17.63c9.07,-1.24 17.54,-6.27 23.99,-14.27c6.46,-8 10.52,-18.49 11.51,-29.74l14.23,-160.67" fill="rgb(97.906494%, 88.180542%, 1.530457%)" fill-rule="evenodd" id="svg_44"/>
  <path d="m114.2,295.54l21.13,63.66l59.03,31.87l-63.66,21.13l-31.87,59.03l-21.13,-63.66l-59.03,-31.87l63.66,-21.13l31.87,-59.03" fill="url(#svg_99)" fill-rule="evenodd" id="svg_4"/>
  <line fill="none" id="svg_101" opacity="0.7" x1="5" x2="561.67" y1="1007.78" y2="1022.78"/>
 </g>
 <defs>
  <linearGradient id="svg_99" spreadMethod="reflect">
   <stop id="jq_stop_5340" offset="0" stop-color="#ffffff"/>
   <stop id="jq_stop_2773" offset="0.57" stop-color="#ba9c01" stop-opacity="1"/>
  </linearGradient>
 </defs>
</svg>